<?xml version="1.0" encoding="UTF-8" standalone="no"?>
<!-- Created with Inkscape (http://www.inkscape.org/) -->

<svg
   xmlns:dc="http://purl.org/dc/elements/1.1/"
   xmlns:cc="http://creativecommons.org/ns#"
   xmlns:rdf="http://www.w3.org/1999/02/22-rdf-syntax-ns#"
   xmlns:svg="http://www.w3.org/2000/svg"
   xmlns="http://www.w3.org/2000/svg"
   xmlns:sodipodi="http://sodipodi.sourceforge.net/DTD/sodipodi-0.dtd"
   xmlns:inkscape="http://www.inkscape.org/namespaces/inkscape"
   width="100"
   height="100"
   id="svg2"
   version="1.1"
   inkscape:version="0.48.5 r10040"
   sodipodi:docname="apple.svg"
   inkscape:export-filename="D:\Programmieren\Studium\MI\studienleistungsnakess18-sith98\assets\img\apple.png"
   inkscape:export-xdpi="90"
   inkscape:export-ydpi="90">
  <defs
     id="defs4" />
  <sodipodi:namedview
     id="base"
     pagecolor="#ffffff"
     bordercolor="#666666"
     borderopacity="1.0"
     inkscape:pageopacity="0.0"
     inkscape:pageshadow="2"
     inkscape:zoom="3.959798"
     inkscape:cx="63.067837"
     inkscape:cy="60.696546"
     inkscape:document-units="px"
     inkscape:current-layer="layer1"
     showgrid="false"
     inkscape:snap-object-midpoints="true"
     inkscape:snap-page="true"
     inkscape:snap-global="false"
     inkscape:window-width="1920"
     inkscape:window-height="1017"
     inkscape:window-x="-8"
     inkscape:window-y="-8"
     inkscape:window-maximized="1" />
  <metadata
     id="metadata7">
    <rdf:RDF>
      <cc:Work
         rdf:about="">
        <dc:format>image/svg+xml</dc:format>
        <dc:type
           rdf:resource="http://purl.org/dc/dcmitype/StillImage" />
        <dc:title></dc:title>
      </cc:Work>
    </rdf:RDF>
  </metadata>
  <g
     inkscape:label="Layer 1"
     inkscape:groupmode="layer"
     id="layer1"
     transform="translate(0,-952.36218)">
    <path
       style="fill:#ff0000;fill-opacity:1"
       d="m -99.148864,955.27271 c -3.880946,-0.4779 -7.689346,-3.3818 -12.280376,-9.3642 -3.96272,-5.1636 -6.41146,-9.4331 -8.66902,-15.1148 -0.68458,-1.7229 -1.7755,-4.9845 -2.24561,-6.7139 -2.22479,-8.1845 -2.52794,-16.3824 -0.85147,-23.02685 1.90651,-7.55613 6.41595,-13.60585 12.78919,-17.15758 2.98571,-1.6639 6.2357,-2.6353 9.80197,-2.92973 3.336554,-0.27546 5.636322,0.21734 12.547685,2.68873 2.283068,0.81639 3.591185,1.21286 4.767505,1.44495 l 0.93011,0.18351 0.871939,-0.19342 c 0.801409,-0.17778 2.816284,-0.83753 8.092364,-2.6498 4.769827,-1.63838 8.081053,-2.08388 11.876586,-1.59792 6.246567,0.79978 11.047183,3.0312 14.766012,6.86354 0.815306,0.84019 2.347978,2.67638 2.280946,2.73264 -0.0098,0.008 -0.537952,0.36321 -1.173579,0.78879 -1.503213,1.00645 -2.38139,1.71473 -3.626399,2.92487 -2.78291,2.70493 -4.527861,5.68046 -5.448446,9.2908 -0.483732,1.89707 -0.631183,3.15747 -0.635928,5.43607 -0.0082,3.9103 0.660069,6.8651 2.263999,10.0111 0.998654,1.9588 2.2166,3.603 3.935188,5.3125 1.913475,1.9032 3.728191,3.2237 5.977164,4.3489 1.245693,0.6232 1.30727,0.6658 1.256721,0.8712 -0.02923,0.1187 -0.305275,0.89 -0.613445,1.7141 -2.110182,5.6421 -4.744265,10.267 -8.873848,15.5804 -2.493198,3.2078 -4.81259,5.47 -6.877669,6.7079 -3.049435,1.8279 -6.131417,2.2139 -9.9833,1.2505 -1.062399,-0.2657 -2.42041,-0.7205 -4.107208,-1.3758 -3.488929,-1.3551 -5.90108,-1.8742 -8.708039,-1.8742 -2.848184,0 -5.309919,0.5286 -8.937693,1.9192 -1.788189,0.6856 -3.39588,1.2244 -4.459772,1.4947 -1.593585,0.4049 -3.477646,0.5801 -4.665577,0.4338 z m 16.227791,-74.72161 c -0.03451,-0.0558 -0.08405,-0.61045 -0.110169,-1.23245 -0.274513,-6.54723 3.728027,-13.95731 9.692824,-17.94483 3.282659,-2.19447 7.308083,-3.70136 10.358429,-3.8776 l 0.428029,-0.0247 0.06711,0.77045 c 0.07231,0.82988 0.01712,2.49077 -0.119303,3.59549 -0.592272,4.79507 -3.048051,9.34712 -7.216318,13.37622 -2.926445,2.82874 -6.152608,4.58914 -9.534364,5.20257 -0.994192,0.18033 -3.480022,0.27435 -3.566224,0.13486 z"
       id="path2996"
       inkscape:connector-curvature="0" />
    <path
       style="fill:#ff0000;fill-opacity:1;stroke:none"
       d="m 98.6943,1004.5823 c 4.87097,25.3644 -28.931845,48.4243 -49.109761,48.0329 -24.123421,-0.4682 -51.8397393,-20.6048 -48.5469047,-45.6926 2.3924007,-18.22746 12.2100867,-25.04645 27.2087147,-27.47337 6.173697,-0.99896 13.961405,5.77597 21.734187,5.77597 9.376703,0 18.368419,-6.54035 25.419204,-5.15056 12.993331,2.56112 20.266637,8.74065 23.29456,24.50766 z"
       id="path3787"
       inkscape:connector-curvature="0"
       sodipodi:nodetypes="sssssss" />
    <path
       style="fill:#00ff00;stroke:none"
       d="m 49.497473,993.77333 c 3.153647,-27.70194 17.746974,-34.29232 32.324881,-40.91118 -6.539213,32.4943 -12.531509,32.98093 -32.324881,40.91118 z"
       id="path3790"
       inkscape:connector-curvature="0"
       sodipodi:nodetypes="ccc" />
    <path
       style="fill:#8b5026;stroke:none;fill-opacity:1"
       d="m 52.022855,992.85607 c 0,0 -1.536418,-18.19614 -6.517711,-25.53828 -4.491354,-6.62001 -19.553137,-14.45564 -19.553137,-14.45564 l -8.021801,7.22783 c 0,0 13.120234,7.68484 17.547688,13.4919 4.659393,6.11128 8.523162,21.2016 8.523162,21.2016 z"
       id="path3792"
       inkscape:connector-curvature="0"
       sodipodi:nodetypes="caccacc" />
  </g>
</svg>
